<?xml version="1.0" standalone="no"?>
<!DOCTYPE svg PUBLIC "-//W3C//DTD SVG 20010904//EN"
 "http://www.w3.org/TR/2001/REC-SVG-20010904/DTD/svg10.dtd">
<svg version="1.0" xmlns="http://www.w3.org/2000/svg"
 width="650.000000pt" height="128.000000pt" viewBox="0 0 650.000000 128.000000"
 preserveAspectRatio="xMidYMid meet">
<metadata>
Created by potrace 1.16, written by Peter Selinger 2001-2019
</metadata>
<g transform="translate(0.000000,128.000000) scale(0.100000,-0.100000)"
fill="#000000" stroke="none">
<path d="M39 1241 l-39 -39 0 -562 0 -562 39 -39 39 -39 562 0 562 0 39 39 39
39 0 562 0 562 -39 39 -39 39 -562 0 -562 0 -39 -39z m764 -232 c51 -17 114
-73 134 -118 25 -57 22 -157 -6 -214 -43 -89 -132 -127 -298 -127 l-104 0 3
-112 c3 -104 5 -113 23 -116 62 -9 65 -11 65 -47 l0 -35 -145 0 -145 0 0 34
c0 36 12 46 56 46 l24 0 0 309 0 308 -40 7 c-39 6 -40 7 -40 47 l0 41 218 -5
c139 -3 230 -9 255 -18z"/>
<path d="M530 785 l0 -145 98 1 c118 0 159 13 189 58 46 69 21 184 -47 218
-15 8 -67 13 -132 13 l-108 0 0 -145z"/>
<path d="M4835 1072 c-67 -23 -118 -64 -154 -122 -50 -81 -64 -148 -59 -274 4
-95 9 -120 33 -173 31 -70 94 -135 153 -160 87 -36 238 -33 328 6 l44 20 0 86
0 86 -42 -3 -43 -3 -3 -48 c-3 -45 -6 -50 -37 -63 -50 -20 -148 -18 -193 5
-95 49 -138 147 -130 299 5 113 40 191 106 237 38 26 52 30 110 29 39 0 83 -7
105 -17 35 -15 37 -19 37 -61 0 -68 6 -76 56 -76 l44 0 0 85 0 85 -39 26 c-83
54 -218 70 -316 36z"/>
<path d="M1820 1045 c0 -36 3 -38 53 -49 l27 -6 0 -289 0 -288 -40 -7 c-38 -6
-40 -8 -40 -41 l0 -35 135 0 135 0 0 35 c0 33 -2 35 -40 41 l-40 7 0 102 0
102 109 6 c129 7 177 19 227 60 93 77 100 241 13 328 -60 60 -103 69 -336 69
l-203 0 0 -35z m420 -73 c65 -32 89 -125 50 -189 -33 -56 -62 -67 -177 -71
l-103 -4 0 141 0 141 98 0 c72 0 106 -4 132 -18z"/>
<path d="M5980 955 l0 -65 -45 0 -45 0 0 -45 0 -45 45 0 45 0 0 -195 c0 -218
6 -242 62 -271 23 -12 50 -15 104 -12 40 2 76 6 80 10 3 4 3 23 0 42 l-7 36
-45 -7 c-35 -4 -49 -2 -64 12 -19 17 -20 31 -20 201 l0 183 58 3 57 3 3 43 3
42 -60 0 -61 0 0 65 0 65 -55 0 -55 0 0 -65z"/>
<path d="M2750 889 c-14 -6 -37 -22 -52 -36 l-28 -27 -6 32 -6 32 -89 0 -89 0
0 -40 c0 -36 3 -40 24 -40 57 0 56 4 56 -205 l0 -192 -40 -7 c-38 -6 -40 -8
-40 -41 l0 -35 141 0 140 0 -3 33 c-3 29 -7 33 -45 41 l-43 10 0 157 0 157 29
31 c26 28 35 31 90 31 l60 0 6 34 c11 58 4 71 -40 73 -22 1 -51 -2 -65 -8z"/>
<path d="M3418 886 c-108 -39 -163 -136 -162 -286 2 -180 95 -283 255 -282
106 0 185 53 209 140 14 53 15 52 -40 52 -47 0 -50 -2 -64 -34 -18 -44 -54
-67 -103 -68 -93 -1 -146 68 -146 192 -1 82 15 128 57 169 66 64 177 48 191
-27 12 -71 13 -72 62 -72 l45 0 -7 73 c-8 86 -25 108 -102 137 -61 23 -141 25
-195 6z"/>
<path d="M3975 885 c-59 -21 -131 -103 -151 -173 -18 -61 -15 -166 7 -235 18
-53 80 -121 131 -142 62 -25 172 -23 237 5 71 31 78 42 52 84 l-22 35 -49 -26
c-121 -63 -227 -16 -250 110 l-7 37 178 0 179 0 0 66 c0 86 -15 135 -57 184
-54 63 -159 86 -248 55z m135 -90 c33 -17 60 -61 60 -100 l0 -25 -120 0 c-76
0 -120 4 -120 10 0 6 9 28 20 49 38 75 97 99 160 66z"/>
<path d="M2910 850 c0 -35 3 -40 23 -40 12 0 32 -3 45 -6 22 -6 22 -8 22 -199
l0 -193 -45 -6 c-43 -7 -45 -9 -45 -42 l0 -34 140 0 140 0 0 35 c0 33 -2 35
-40 41 l-40 7 0 238 0 239 -100 0 -100 0 0 -40z"/>
<path d="M5262 853 c3 -32 7 -38 36 -45 l32 -9 0 -152 c0 -174 13 -238 57
-279 43 -39 71 -50 132 -50 66 0 96 10 134 46 l28 26 6 -30 6 -30 78 0 79 0 0
35 c0 31 -3 36 -30 42 l-30 6 0 238 0 239 -95 0 -95 0 0 -40 c0 -36 3 -40 24
-40 56 0 56 0 56 -170 0 -153 -1 -158 -25 -184 -29 -32 -64 -46 -111 -46 -92
0 -104 33 -104 285 l0 195 -91 0 -90 0 3 -37z"/>
</g>
</svg>
